<svg width="483" height="281" viewBox="0 0 483 281" fill="none" xmlns="http://www.w3.org/2000/svg">
<path fill-rule="evenodd" clip-rule="evenodd" d="M58.3897 230.172V260.418H36.8147V253.003C34.1288 258.696 28.757 261.469 20.8451 261.469C7.09435 261.469 0 253.616 0 243.982C0 233.063 8.20376 227.019 25.7207 227.019H35.063C34.3332 222.699 31.0342 220.451 24.4653 220.451C20.3488 220.451 15.8528 221.531 12.3494 223.428C11.0357 224.1 9.48834 223.633 8.84605 222.319L3.67855 211.634C3.09465 210.407 3.56177 208.948 4.78796 208.335C11.2692 204.977 20.1153 203.138 27.9687 203.138C47.2957 203.138 58.3897 211.488 58.3897 230.172ZM35.1798 242.113V238.201H29.3992C24.4653 238.201 22.3049 239.865 22.3049 242.96C22.3049 245.5 24.3485 247.485 27.8811 247.485C31.0341 247.485 33.8952 245.821 35.1798 242.113ZM68.7831 184.599C81.6289 184.599 91.993 194.993 91.993 207.838V260.885H68.7831V184.599ZM357.053 229.297V259.484H335.478V252.098C332.792 257.762 327.45 260.535 319.509 260.535C305.758 260.535 298.664 252.74 298.664 243.077C298.664 232.158 306.897 226.085 324.384 226.085H333.727C332.997 221.793 329.727 219.516 323.1 219.516C319.363 219.516 315.275 220.421 311.889 222.027C310.05 222.932 307.831 222.115 306.984 220.246L302.897 211.867C301.963 209.999 302.751 207.692 304.678 206.816C311.042 203.839 319.275 202.233 326.632 202.233C345.93 202.233 357.053 210.553 357.053 229.297ZM333.814 241.208V237.325H328.063C323.1 237.325 320.968 238.931 320.968 242.026C320.968 244.624 323.041 246.551 326.515 246.551C329.727 246.551 332.617 244.887 333.814 241.208ZM429.019 203.255L405.926 260.652C399.736 276.067 390.657 280.504 378.774 280.504C372.585 280.504 365.491 278.548 361.695 275.454L369.374 259.484C371.651 261.265 374.862 262.491 377.607 262.491C380.38 262.491 382.161 261.644 383.358 260.214L359.739 203.255H365.637C376.468 203.255 386.161 209.911 390.044 220.013L395.211 233.384L401.751 216.772C404.933 208.627 412.786 203.255 421.545 203.255H429.019ZM430.128 250.784L432.843 244.332C433.836 241.909 436.58 240.77 438.974 241.734C443.733 243.631 449.338 244.711 454.418 244.711C460.053 244.711 461.6 243.69 461.6 242.026C461.6 236.274 429.194 244.011 429.194 221.443C429.194 210.875 439.091 202.233 458.009 202.233C464.286 202.233 470.884 203.109 476.314 204.919C478.884 205.795 480.197 208.685 479.146 211.196L476.46 217.648C475.468 220.042 472.782 221.122 470.359 220.246C466.067 218.611 461.892 218.086 458.33 218.086C452.345 218.086 450.71 219.4 450.71 220.742C450.71 226.611 483 219.02 483 241.529C483 251.689 473.424 260.535 453.893 260.535C446.39 260.535 438.653 259.163 432.872 257.003C430.362 256.068 429.106 253.266 430.128 250.784ZM224.596 220.334C227.34 215.166 229.443 209.911 233.267 205.678C237.821 200.598 244.945 201.62 248.653 207.722C254.287 216.976 259.747 226.26 265.498 235.398C266.987 237.792 269.06 239.894 271.308 241.588C274.607 244.069 277.964 243.631 281.117 240.945C281.614 240.507 282.168 240.04 282.957 239.807C282.159 241.442 281.351 243.077 280.534 244.711C278.811 248.156 277.235 251.66 275.366 255.046C271.804 261.469 263.63 263.163 257.966 258.667C257.09 257.995 256.389 257.061 255.835 256.127C249.324 245.325 242.872 234.464 236.391 223.691C235.749 222.611 234.96 221.589 234.085 220.713C231.369 217.706 227.866 217.327 225.472 220.129C225.355 220.246 225.092 220.246 224.596 220.334ZM242.931 239.544C242.785 240.069 242.755 240.449 242.58 240.77C240.361 245.266 238.123 249.772 235.865 254.287C232.566 260.856 225.034 263.192 219.049 259.338C217.881 258.608 216.772 257.528 216.042 256.302C211.196 248.302 206.408 240.303 201.591 232.274C201.046 233.228 200.491 234.192 199.927 235.165C197.912 229.88 195.051 225.706 191.256 222.173C190.088 221.064 189.154 219.779 188.511 218.407C188.005 217.297 187.665 216.159 187.49 214.991C187.052 211.926 187.84 208.743 190 206.174C194.146 201.299 201.182 200.598 206.116 204.598C207.634 205.824 208.802 207.371 209.561 209.123C214.378 217.035 219.137 225.005 223.983 232.917C225.414 235.252 226.961 237.675 228.888 239.661C233.325 244.274 237.442 244.274 242.171 239.982C242.317 239.865 242.551 239.807 242.931 239.544ZM285.176 237.208C283.161 232.041 280.388 227.954 276.738 224.538C272.242 220.334 271.6 213.59 275.512 208.977C279.541 204.247 286.373 203.547 291.19 207.43C294.985 210.495 296.562 215.779 294.314 220.567C291.628 226.26 288.241 231.661 285.176 237.208ZM137.741 217.852C140.544 212.51 142.734 207.138 146.617 202.788C151.288 197.591 158.616 198.584 162.44 204.89C168.221 214.378 173.826 223.925 179.753 233.355C181.271 235.778 183.402 237.967 185.709 239.69C189.124 242.23 192.54 241.763 195.81 239.048C196.336 238.581 196.832 238.113 197.679 237.851C196.861 239.525 196.034 241.198 195.197 242.872C193.416 246.434 191.781 250.025 189.854 253.499C186.234 260.156 177.826 261.878 171.987 257.236C171.14 256.535 170.381 255.572 169.797 254.609C163.112 243.544 156.514 232.391 149.828 221.326C149.157 220.188 148.339 219.166 147.493 218.232C144.631 215.166 141.07 214.758 138.588 217.619C138.501 217.706 138.238 217.706 137.741 217.852ZM97.1314 217.794C99.6713 212.247 101.832 206.525 106.182 202.175C110.736 197.649 117.685 198.875 121.305 204.744C126.618 213.415 131.756 222.144 137.099 230.756C138.588 233.209 140.135 235.661 142.091 237.705C146.675 242.493 150.908 242.463 155.784 238.026C155.93 237.909 156.134 237.851 156.572 237.588C156.397 238.143 156.368 238.522 156.222 238.814C153.925 243.466 151.609 248.108 149.273 252.74C145.887 259.484 138.121 261.878 132.019 257.937C130.793 257.207 129.684 256.039 128.925 254.813C122.414 244.098 116.02 233.325 109.539 222.582C108.547 220.918 107.379 219.254 106.036 217.852C103.321 215.079 100.781 215.02 97.7444 217.443C97.5693 217.56 97.3357 217.677 97.1314 217.794ZM321.874 129.479C321.465 132.253 320.151 134.618 317.932 136.252C314.662 138.617 311.276 140.924 307.802 142.967C294.664 150.616 281.439 158.178 268.272 165.739C260.272 170.323 252.215 174.848 244.274 179.607C242.201 180.804 240.624 180.804 238.581 179.607C220.976 169.359 203.313 159.229 185.65 149.04C173.019 141.761 160.377 134.462 147.726 127.144C144.787 125.47 141.848 123.786 138.909 122.093C138.355 121.772 137.8 121.363 136.953 120.779C137.741 120.108 138.267 119.495 138.968 119.086C142.559 117.013 146.179 114.94 149.77 112.838C165.554 103.788 181.329 94.7277 197.095 85.6578V87.9934C194.234 89.6477 191.372 91.3021 188.511 92.9565C174.362 101.092 160.221 109.218 146.091 117.334C144.485 118.268 142.909 119.174 141.157 120.166C141.654 120.575 141.916 120.838 142.237 121.013C157.107 129.518 171.987 138.024 186.876 146.529C202.525 155.502 218.183 164.464 233.851 173.418C236.041 174.673 238.23 175.899 240.391 177.155C241.266 177.709 242.084 177.68 243.018 177.125C264.973 164.601 286.927 152.135 308.911 139.581C311.217 138.267 313.436 136.749 315.509 135.085C321.348 130.589 319.742 122.706 315.801 118.882C313.086 116.254 309.758 115.057 306.108 114.999C303.743 114.94 301.32 115.057 298.985 115.583C292.591 116.896 286.373 118.911 281.263 123.261C279.891 124.458 278.636 125.859 277.672 127.406C276.213 129.567 276.972 131.26 279.453 131.961C282.49 132.866 285.526 132.691 288.533 131.932C295.131 130.268 301.204 127.611 305.758 122.327C307.072 120.779 308.123 118.998 309.407 117.071C309.904 117.159 310.633 117.334 311.597 117.509C311.13 118.473 310.838 119.232 310.458 119.933C308.006 124.02 304.59 127.056 300.532 129.421C296.094 131.961 291.336 133.654 286.285 134.442C283.657 134.88 281.03 134.822 278.578 133.742C275.716 132.516 274.724 130.238 275.862 127.319C277.089 124.137 279.541 121.947 282.344 120.108C290.109 114.969 298.576 112.196 308.035 112.867C308.356 112.926 308.677 112.867 309.232 112.867C309.174 112.167 309.203 111.466 309.028 110.911C308.094 107.262 305.846 104.868 302.342 103.554C296.503 101.365 290.547 101.657 284.533 102.678C277.702 103.846 271.191 106.153 264.798 108.78C253.733 113.422 243.047 118.765 233.034 125.45C228.8 128.311 224.684 131.348 220.538 134.384L219.808 132.895C225.56 127.231 229.734 124.925 236.595 120.779C246.901 114.561 257.645 109.306 268.914 105.306C277.059 102.386 285.438 100.518 294.109 100.576C297.583 100.606 300.999 101.014 304.152 102.62C308.502 104.868 311.568 108.138 312.239 113.159C312.298 113.335 312.356 113.48 312.473 113.714C312.911 113.918 313.407 114.181 313.903 114.386C319.771 117.159 322.895 123.086 321.874 129.479ZM261.031 73.5711C261.411 72.8996 261.761 72.3157 262.199 71.615C290.255 87.7598 318.137 103.846 346.018 119.933C345.58 121.538 344.762 121.889 343.273 121.1C341.259 120.02 339.332 118.852 337.347 117.743C322.555 109.218 307.792 100.703 293.058 92.1974C282.762 86.2611 272.476 80.3346 262.199 74.4177C261.849 74.1842 261.499 73.8922 261.031 73.5711ZM221.21 134.384C221.19 134.365 221.171 134.335 221.151 134.296C221.171 134.335 221.19 134.355 221.21 134.355V134.384ZM240.741 69.367C240.663 69.367 240.614 69.3768 240.595 69.3962C240.614 69.3768 240.653 69.3573 240.712 69.3378L240.741 69.367ZM241.5 81.804C241.422 81.8235 241.354 81.8332 241.296 81.8332C241.354 81.8138 241.403 81.7943 241.442 81.7749L241.5 81.804ZM238.668 97.1898C238.649 97.1898 238.629 97.1898 238.61 97.1898C238.61 97.1898 238.619 97.1898 238.639 97.1898H238.668ZM239.369 0C239.369 0.0194633 239.369 0.0291967 239.369 0.0291967V0Z" fill="#8CAB91"/>
</svg>
